<?xml version="1.0" encoding="UTF-8"?>
<svg width="176px" height="36px" viewBox="0 0 176 36" version="1.1" xmlns="http://www.w3.org/2000/svg" xmlns:xlink="http://www.w3.org/1999/xlink">
    <title>logo</title>
    <g id="logo" stroke="none" stroke-width="1" fill="none" fill-rule="evenodd">
        <g id="Proscenium" transform="translate(1.518, 2.082)" fill="#000000" fill-rule="nonzero">
            <path d="M25.641,8.25 C25.641,10.12 25.157,11.836 24.189,13.398 C23.221,14.96 21.813,16.236 19.965,17.226 C18.117,18.216 15.917,18.799 13.365,18.975 L11.946,26.928 C11.396,29.986 9.9,31.515 7.458,31.515 C6.116,31.515 4.8785,31.119 3.7455,30.327 C2.6125,29.535 1.705,28.325 1.023,26.697 C0.341,25.069 -6.66133815e-16,23.067 -6.66133815e-16,20.691 C-6.66133815e-16,16.225 0.7205,12.4355 2.1615,9.3225 C3.6025,6.2095 5.5385,3.8775 7.9695,2.3265 C10.4005,0.7755 13.079,-3.55271368e-15 16.005,-3.55271368e-15 C18.073,-3.55271368e-15 19.8275,0.363 21.2685,1.089 C22.7095,1.815 23.7985,2.7995 24.5355,4.0425 C25.2725,5.2855 25.641,6.688 25.641,8.25 Z M13.959,15.576 C18.469,15.004 20.724,12.661 20.724,8.547 C20.724,7.095 20.2455,5.9125 19.2885,4.9995 C18.3315,4.0865 16.852,3.63 14.85,3.63 C12.584,3.63 10.6095,4.345 8.9265,5.775 C7.2435,7.205 5.9455,9.1905 5.0325,11.7315 C4.1195,14.2725 3.663,17.171 3.663,20.427 C3.663,21.791 3.8005,23.001 4.0755,24.057 C4.3505,25.113 4.7025,25.9325 5.1315,26.5155 C5.5605,27.0985 5.973,27.39 6.369,27.39 C6.919,27.39 7.337,26.631 7.623,25.113 L8.712,18.876 C7.854,18.744 7.48,18.689 7.59,18.711 C6.93,18.601 6.501,18.3975 6.303,18.1005 C6.105,17.8035 6.006,17.424 6.006,16.962 C6.006,16.478 6.1435,16.093 6.4185,15.807 C6.6935,15.521 7.073,15.378 7.557,15.378 C7.777,15.378 7.942,15.389 8.052,15.411 C8.58,15.499 8.987,15.554 9.273,15.576 C9.559,13.86 9.966,11.561 10.494,8.679 C10.626,7.931 10.9285,7.3975 11.4015,7.0785 C11.8745,6.7595 12.43,6.6 13.068,6.6 C13.794,6.6 14.3165,6.7375 14.6355,7.0125 C14.9545,7.2875 15.114,7.722 15.114,8.316 C15.114,8.668 15.092,8.954 15.048,9.174 L13.959,15.576 Z" id="Shape"></path>
            <path d="M26.272819,28.083 C25.436819,28.083 24.848319,27.643 24.507319,26.763 C24.166319,25.883 23.995819,24.475 23.995819,22.539 C23.995819,19.679 24.402819,16.962 25.216819,14.388 C25.414819,13.75 25.739319,13.2825 26.190319,12.9855 C26.641319,12.6885 27.273819,12.54 28.087819,12.54 C28.527819,12.54 28.835819,12.595 29.011819,12.705 C29.187819,12.815 29.275819,13.024 29.275819,13.332 C29.275819,13.684 29.110819,14.476 28.780819,15.708 C28.560819,16.588 28.384819,17.358 28.252819,18.018 C28.120819,18.678 28.010819,19.492 27.922819,20.46 C28.648819,18.568 29.462819,17.028 30.364819,15.84 C31.266819,14.652 32.152319,13.805 33.021319,13.299 C33.890319,12.793 34.687819,12.54 35.413819,12.54 C36.843819,12.54 37.558819,13.255 37.558819,14.685 C37.558819,14.971 37.459819,15.664 37.261819,16.764 C37.085819,17.644 36.997819,18.194 36.997819,18.414 C36.997819,19.184 37.272819,19.569 37.822819,19.569 C38.438819,19.569 39.230819,19.085 40.198819,18.117 C40.484819,17.831 40.781819,17.688 41.089819,17.688 C41.375819,17.688 41.601319,17.8145 41.766319,18.0675 C41.931319,18.3205 42.013819,18.656 42.013819,19.074 C42.013819,19.888 41.793819,20.526 41.353819,20.988 C40.737819,21.626 40.017319,22.1705 39.192319,22.6215 C38.367319,23.0725 37.492819,23.298 36.568819,23.298 C35.402819,23.298 34.517319,23.001 33.912319,22.407 C33.307319,21.813 33.004819,21.01 33.004819,19.998 C33.004819,19.668 33.037819,19.338 33.103819,19.008 C33.147819,18.568 33.169819,18.271 33.169819,18.117 C33.169819,17.765 33.048819,17.589 32.806819,17.589 C32.476819,17.589 32.042319,17.9575 31.503319,18.6945 C30.964319,19.4315 30.430819,20.405 29.902819,21.615 C29.374819,22.825 28.945819,24.101 28.615819,25.443 C28.373819,26.477 28.093319,27.1755 27.774319,27.5385 C27.455319,27.9015 26.954819,28.083 26.272819,28.083 Z" id="Path"></path>
            <path d="M43.800638,28.083 C42.502638,28.083 41.397138,27.7585 40.484138,27.1095 C39.571138,26.4605 38.883638,25.608 38.421638,24.552 C37.959638,23.496 37.728638,22.363 37.728638,21.153 C37.728638,19.481 38.042138,17.9905 38.669138,16.6815 C39.296138,15.3725 40.148638,14.3495 41.226638,13.6125 C42.304638,12.8755 43.514638,12.507 44.856638,12.507 C46.154638,12.507 47.265638,12.8315 48.189638,13.4805 C49.113638,14.1295 49.806638,14.982 50.268638,16.038 C50.730638,17.094 50.961638,18.227 50.961638,19.437 C50.961638,21.109 50.642638,22.5995 50.004638,23.9085 C49.366638,25.2175 48.503138,26.2405 47.414138,26.9775 C46.325138,27.7145 45.120638,28.083 43.800638,28.083 Z M44.163638,24.519 C44.911638,24.519 45.544138,24.112 46.061138,23.298 C46.578138,22.484 46.836638,21.296 46.836638,19.734 C46.836638,18.524 46.616638,17.611 46.176638,16.995 C45.736638,16.379 45.208638,16.071 44.592638,16.071 C43.800638,16.071 43.146138,16.4725 42.629138,17.2755 C42.112138,18.0785 41.853638,19.272 41.853638,20.856 C41.853638,22.11 42.073638,23.034 42.513638,23.628 C42.953638,24.222 43.503638,24.519 44.163638,24.519 Z" id="Shape"></path>
            <path d="M58.424457,28.809 C57.280457,28.809 56.405957,28.545 55.800957,28.017 C55.195957,27.489 54.893457,26.895 54.893457,26.235 C54.893457,25.663 55.102457,25.168 55.520457,24.75 C55.938457,24.332 56.554457,24.123 57.368457,24.123 C57.654457,24.123 57.989957,24.1505 58.374957,24.2055 C58.759957,24.2605 59.051457,24.299 59.249457,24.321 C59.227457,23.749 59.100957,23.21 58.869957,22.704 C58.638957,22.198 58.347457,21.7085 57.995457,21.2355 C57.643457,20.7625 57.313457,20.35 57.005457,19.998 C56.323457,21.296 55.646957,22.374 54.975957,23.232 C54.304957,24.09 53.573457,24.904 52.781457,25.674 C52.385457,26.07 51.967457,26.268 51.527457,26.268 C51.175457,26.268 50.889457,26.1415 50.669457,25.8885 C50.449457,25.6355 50.339457,25.322 50.339457,24.948 C50.339457,24.508 50.493457,24.101 50.801457,23.727 L51.230457,23.199 C52.440457,21.703 53.353457,20.471 53.969457,19.503 C54.343457,18.865 54.783457,18.0125 55.289457,16.9455 C55.795457,15.8785 56.290457,14.773 56.774457,13.629 C57.192457,12.661 58.061457,12.177 59.381457,12.177 C59.997457,12.177 60.426457,12.232 60.668457,12.342 C60.910457,12.452 61.031457,12.628 61.031457,12.87 C61.031457,13.002 60.987457,13.211 60.899457,13.497 C60.811457,13.783 60.690457,14.069 60.536457,14.355 C60.140457,15.147 59.942457,15.818 59.942457,16.368 C59.942457,16.698 60.057957,17.061 60.288957,17.457 C60.519957,17.853 60.877457,18.348 61.361457,18.942 C62.065457,19.866 62.598957,20.6525 62.961957,21.3015 C63.324957,21.9505 63.506457,22.66 63.506457,23.43 C63.506457,23.65 63.484457,23.958 63.440457,24.354 C64.518457,23.936 65.783457,22.825 67.235457,21.021 C67.499457,20.713 67.796457,20.559 68.126457,20.559 C68.412457,20.559 68.637957,20.691 68.802957,20.955 C68.967957,21.219 69.050457,21.582 69.050457,22.044 C69.050457,22.88 68.841457,23.562 68.423457,24.09 C67.323457,25.454 66.272957,26.3835 65.271957,26.8785 C64.270957,27.3735 63.033457,27.643 61.559457,27.687 C60.679457,28.435 59.634457,28.809 58.424457,28.809 Z" id="Path"></path>
            <path d="M71.959276,28.083 C69.803276,28.083 68.125776,27.4725 66.926776,26.2515 C65.727776,25.0305 65.128276,23.419 65.128276,21.417 C65.128276,19.635 65.480276,18.073 66.184276,16.731 C66.888276,15.389 67.801276,14.355 68.923276,13.629 C70.045276,12.903 71.222276,12.54 72.454276,12.54 C73.664276,12.54 74.604776,12.8975 75.275776,13.6125 C75.946776,14.3275 76.282276,15.246 76.282276,16.368 C76.282276,17.292 76.078776,18.073 75.671776,18.711 C75.264776,19.349 74.731276,19.668 74.071276,19.668 C73.653276,19.668 73.317776,19.569 73.064776,19.371 C72.811776,19.173 72.685276,18.898 72.685276,18.546 C72.685276,18.392 72.707276,18.216 72.751276,18.018 C72.795276,17.82 72.828276,17.677 72.850276,17.589 C72.960276,17.259 73.015276,16.951 73.015276,16.665 C73.015276,16.379 72.943776,16.159 72.800776,16.005 C72.657776,15.851 72.454276,15.774 72.190276,15.774 C71.684276,15.774 71.211276,15.9995 70.771276,16.4505 C70.331276,16.9015 69.979276,17.512 69.715276,18.282 C69.451276,19.052 69.319276,19.899 69.319276,20.823 C69.319276,23.375 70.430276,24.651 72.652276,24.651 C73.554276,24.651 74.527776,24.3485 75.572776,23.7435 C76.617776,23.1385 77.646276,22.231 78.658276,21.021 C78.922276,20.713 79.219276,20.559 79.549276,20.559 C79.835276,20.559 80.060776,20.691 80.225776,20.955 C80.390776,21.219 80.473276,21.582 80.473276,22.044 C80.473276,22.88 80.264276,23.562 79.846276,24.09 C78.812276,25.366 77.574776,26.3505 76.133776,27.0435 C74.692776,27.7365 73.301276,28.083 71.959276,28.083 Z" id="Path"></path>
            <path d="M91.797095,20.559 C92.083095,20.559 92.308595,20.691 92.473595,20.955 C92.638595,21.219 92.721095,21.582 92.721095,22.044 C92.721095,22.924 92.512095,23.606 92.094095,24.09 C91.280095,25.08 90.130595,25.993 88.645595,26.829 C87.160595,27.665 85.571095,28.083 83.877095,28.083 C81.567095,28.083 79.774095,27.456 78.498095,26.202 C77.222095,24.948 76.584095,23.232 76.584095,21.054 C76.584095,19.536 76.903095,18.1225 77.541095,16.8135 C78.179095,15.5045 79.064595,14.465 80.197595,13.695 C81.330595,12.925 82.612095,12.54 84.042095,12.54 C85.318095,12.54 86.341095,12.9195 87.111095,13.6785 C87.881095,14.4375 88.266095,15.466 88.266095,16.764 C88.266095,18.282 87.721595,19.5855 86.632595,20.6745 C85.543595,21.7635 83.701095,22.627 81.105095,23.265 C81.655095,24.277 82.700095,24.783 84.240095,24.783 C85.230095,24.783 86.357595,24.4365 87.622595,23.7435 C88.887595,23.0505 89.982095,22.143 90.906095,21.021 C91.170095,20.713 91.467095,20.559 91.797095,20.559 Z M83.481095,15.774 C82.667095,15.774 81.979595,16.247 81.418595,17.193 C80.857595,18.139 80.577095,19.283 80.577095,20.625 L80.577095,20.691 C81.875095,20.383 82.898095,19.921 83.646095,19.305 C84.394095,18.689 84.768095,17.974 84.768095,17.16 C84.768095,16.742 84.652595,16.4065 84.421595,16.1535 C84.190595,15.9005 83.877095,15.774 83.481095,15.774 Z" id="Shape"></path>
            <path d="M91.669914,28.083 C90.833914,28.083 90.245414,27.643 89.904414,26.763 C89.563414,25.883 89.392914,24.475 89.392914,22.539 C89.392914,19.679 89.799914,16.962 90.613914,14.388 C90.811914,13.75 91.136414,13.2825 91.587414,12.9855 C92.038414,12.6885 92.670914,12.54 93.484914,12.54 C93.924914,12.54 94.232914,12.595 94.408914,12.705 C94.584914,12.815 94.672914,13.024 94.672914,13.332 C94.672914,13.684 94.507914,14.476 94.177914,15.708 C93.957914,16.588 93.781914,17.358 93.649914,18.018 C93.517914,18.678 93.407914,19.492 93.319914,20.46 C94.045914,18.568 94.859914,17.028 95.761914,15.84 C96.663914,14.652 97.549414,13.805 98.418414,13.299 C99.287414,12.793 100.084914,12.54 100.810914,12.54 C102.240914,12.54 102.955914,13.255 102.955914,14.685 C102.955914,15.543 102.713914,17.094 102.229914,19.338 C101.811914,21.252 101.602914,22.517 101.602914,23.133 C101.602914,24.013 101.921914,24.453 102.559914,24.453 C102.999914,24.453 103.522414,24.1835 104.127414,23.6445 C104.732414,23.1055 105.540914,22.231 106.552914,21.021 C106.816914,20.713 107.113914,20.559 107.443914,20.559 C107.729914,20.559 107.955414,20.691 108.120414,20.955 C108.285414,21.219 108.367914,21.582 108.367914,22.044 C108.367914,22.924 108.158914,23.606 107.740914,24.09 C106.794914,25.256 105.777414,26.213 104.688414,26.961 C103.599414,27.709 102.361914,28.083 100.975914,28.083 C99.853914,28.083 99.006914,27.7585 98.434914,27.1095 C97.862914,26.4605 97.576914,25.52 97.576914,24.288 C97.576914,23.672 97.730914,22.572 98.038914,20.988 C98.324914,19.602 98.467914,18.645 98.467914,18.117 C98.467914,17.765 98.346914,17.589 98.104914,17.589 C97.818914,17.589 97.417414,17.9575 96.900414,18.6945 C96.383414,19.4315 95.855414,20.405 95.316414,21.615 C94.777414,22.825 94.342914,24.101 94.012914,25.443 C93.770914,26.477 93.490414,27.1755 93.171414,27.5385 C92.852414,27.9015 92.351914,28.083 91.669914,28.083 Z" id="Path"></path>
            <path d="M109.296733,10.362 C108.372733,10.362 107.679733,10.1475 107.217733,9.7185 C106.755733,9.2895 106.524733,8.69 106.524733,7.92 C106.524733,7.15 106.827233,6.5065 107.432233,5.9895 C108.037233,5.4725 108.790733,5.214 109.692733,5.214 C110.506733,5.214 111.166733,5.412 111.672733,5.808 C112.178733,6.204 112.431733,6.765 112.431733,7.491 C112.431733,8.371 112.145733,9.0695 111.573733,9.5865 C111.001733,10.1035 110.242733,10.362 109.296733,10.362 Z M109.032733,28.083 C107.602733,28.083 106.563233,27.577 105.914233,26.565 C105.265233,25.553 104.940733,24.211 104.940733,22.539 C104.940733,21.549 105.067233,20.2785 105.320233,18.7275 C105.573233,17.1765 105.897733,15.73 106.293733,14.388 C106.491733,13.684 106.755733,13.2 107.085733,12.936 C107.415733,12.672 107.943733,12.54 108.669733,12.54 C109.791733,12.54 110.352733,12.914 110.352733,13.662 C110.352733,14.212 110.143733,15.488 109.725733,17.49 C109.197733,19.91 108.933733,21.549 108.933733,22.407 C108.933733,23.067 109.021733,23.573 109.197733,23.925 C109.373733,24.277 109.670733,24.453 110.088733,24.453 C110.484733,24.453 110.979733,24.178 111.573733,23.628 C112.167733,23.078 112.959733,22.209 113.949733,21.021 C114.213733,20.713 114.510733,20.559 114.840733,20.559 C115.126733,20.559 115.352233,20.691 115.517233,20.955 C115.682233,21.219 115.764733,21.582 115.764733,22.044 C115.764733,22.924 115.555733,23.606 115.137733,24.09 C112.959733,26.752 110.924733,28.083 109.032733,28.083 Z" id="Shape"></path>
            <path d="M115.736552,28.083 C114.746552,28.083 113.938052,27.6265 113.311052,26.7135 C112.684052,25.8005 112.370552,24.662 112.370552,23.298 C112.370552,21.648 112.480552,20.1355 112.700552,18.7605 C112.920552,17.3855 113.283552,15.928 113.789552,14.388 C114.009552,13.728 114.317552,13.255 114.713552,12.969 C115.109552,12.683 115.736552,12.54 116.594552,12.54 C117.078552,12.54 117.414052,12.617 117.601052,12.771 C117.788052,12.925 117.881552,13.156 117.881552,13.464 C117.881552,13.64 117.760552,14.234 117.518552,15.246 C117.298552,16.06 117.122552,16.797 116.990552,17.457 C116.550552,19.767 116.330552,21.307 116.330552,22.077 C116.330552,22.539 116.385552,22.8635 116.495552,23.0505 C116.605552,23.2375 116.781552,23.331 117.023552,23.331 C117.353552,23.331 117.766052,23.001 118.261052,22.341 C118.756052,21.681 119.284052,20.68 119.845052,19.338 C120.406052,17.996 120.950552,16.346 121.478552,14.388 C121.654552,13.728 121.924052,13.255 122.287052,12.969 C122.650052,12.683 123.194552,12.54 123.920552,12.54 C124.426552,12.54 124.778552,12.6005 124.976552,12.7215 C125.174552,12.8425 125.273552,13.068 125.273552,13.398 C125.273552,13.948 124.998552,15.455 124.448552,17.919 C123.832552,20.735 123.524552,22.473 123.524552,23.133 C123.524552,23.551 123.612552,23.8755 123.788552,24.1065 C123.964552,24.3375 124.195552,24.453 124.481552,24.453 C124.921552,24.453 125.444052,24.1835 126.049052,23.6445 C126.654052,23.1055 127.462552,22.231 128.474552,21.021 C128.738552,20.713 129.035552,20.559 129.365552,20.559 C129.651552,20.559 129.877052,20.691 130.042052,20.955 C130.207052,21.219 130.289552,21.582 130.289552,22.044 C130.289552,22.924 130.080552,23.606 129.662552,24.09 C128.716552,25.256 127.699052,26.213 126.610052,26.961 C125.521052,27.709 124.283552,28.083 122.897552,28.083 C121.841552,28.083 121.066052,27.676 120.571052,26.862 C120.076052,26.048 119.828552,24.904 119.828552,23.43 C119.454552,24.926 118.893552,26.0755 118.145552,26.8785 C117.397552,27.6815 116.594552,28.083 115.736552,28.083 Z" id="Path"></path>
            <path d="M129.238371,28.083 C128.402371,28.083 127.813871,27.643 127.472871,26.763 C127.131871,25.883 126.961371,24.475 126.961371,22.539 C126.961371,19.679 127.368371,16.962 128.182371,14.388 C128.380371,13.75 128.704871,13.2825 129.155871,12.9855 C129.606871,12.6885 130.239371,12.54 131.053371,12.54 C131.493371,12.54 131.801371,12.595 131.977371,12.705 C132.153371,12.815 132.241371,13.024 132.241371,13.332 C132.241371,13.684 132.076371,14.476 131.746371,15.708 C131.526371,16.588 131.350371,17.3525 131.218371,18.0015 C131.086371,18.6505 130.976371,19.459 130.888371,20.427 C131.482371,18.711 132.191871,17.259 133.016871,16.071 C133.841871,14.883 134.688871,13.9975 135.557871,13.4145 C136.426871,12.8315 137.246371,12.54 138.016371,12.54 C138.786371,12.54 139.330871,12.716 139.649871,13.068 C139.968871,13.42 140.128371,13.959 140.128371,14.685 C140.128371,15.389 139.919371,16.665 139.501371,18.513 C139.325371,19.305 139.204371,19.899 139.138371,20.295 C139.864371,18.447 140.672871,16.94 141.563871,15.774 C142.454871,14.608 143.329371,13.7775 144.187371,13.2825 C145.045371,12.7875 145.837371,12.54 146.563371,12.54 C147.267371,12.54 147.800871,12.7215 148.163871,13.0845 C148.526871,13.4475 148.708371,13.981 148.708371,14.685 C148.708371,15.257 148.587371,16.335 148.345371,17.919 C148.125371,19.261 147.949371,20.5315 147.817371,21.7305 C147.685371,22.9295 147.619371,24.266 147.619371,25.74 C147.619371,26.576 147.448871,27.1755 147.107871,27.5385 C146.766871,27.9015 146.211371,28.083 145.441371,28.083 C144.715371,28.083 144.187371,27.896 143.857371,27.522 C143.527371,27.148 143.362371,26.587 143.362371,25.839 C143.362371,24.959 143.516371,23.507 143.824371,21.483 C144.088371,19.723 144.220371,18.601 144.220371,18.117 C144.220371,17.765 144.099371,17.589 143.857371,17.589 C143.571371,17.589 143.164371,17.9575 142.636371,18.6945 C142.108371,19.4315 141.580371,20.405 141.052371,21.615 C140.524371,22.825 140.095371,24.101 139.765371,25.443 C139.523371,26.499 139.242871,27.203 138.923871,27.555 C138.604871,27.907 138.093371,28.083 137.389371,28.083 C136.663371,28.083 136.118871,27.7365 135.755871,27.0435 C135.392871,26.3505 135.211371,25.509 135.211371,24.519 C135.211371,23.683 135.321371,22.473 135.541371,20.889 C135.717371,19.481 135.805371,18.557 135.805371,18.117 C135.805371,17.765 135.684371,17.589 135.442371,17.589 C135.112371,17.589 134.694371,17.985 134.188371,18.777 C133.682371,19.569 133.192871,20.581 132.719871,21.813 C132.246871,23.045 131.867371,24.255 131.581371,25.443 C131.339371,26.477 131.058871,27.1755 130.739871,27.5385 C130.420871,27.9015 129.920371,28.083 129.238371,28.083 Z" id="Path"></path>
        </g>
        <g id="masks-theater" transform="translate(151, 13)" fill="#000000" fill-rule="nonzero">
            <path d="M13.3538975,0.982933143 C13.4149871,1.02511881 13.4688897,1.07081996 13.5156053,1.12355204 C12.689099,1.13761393 11.9811783,1.2184698 11.3774693,1.34502681 C10.4287838,1.10949015 8.93029183,0.975902198 6.65560262,1.34151134 C2.76383577,1.97078093 1.50610871,3.26095935 1.17191267,3.71445531 L1.17191267,3.71797078 C1.16831916,3.74609456 1.16472566,3.80234212 1.18269319,3.89374441 L2.18528132,9.64857296 C2.37933064,10.7559468 2.88601496,11.7156708 3.68736677,12.3519713 C4.43481599,12.9425707 5.37272102,13.5929332 6.34656111,14.0464291 C6.9538636,14.3311824 7.52882454,14.5175024 8.04988289,14.5913274 C8.29424129,14.9569365 8.57094124,15.3436385 8.87638924,15.7338559 C6.79215584,15.9061141 4.44559651,14.4050073 2.94710456,13.2132621 C1.87983332,12.3695487 1.26534382,11.1391333 1.03535945,9.83137754 L0.0291778035,4.08006445 C-0.0319117962,3.73554814 -0.00675725513,3.38048542 0.198072579,3.09573214 C0.737098459,2.35396743 2.28589949,0.909108219 6.4615533,0.241168436 C10.6372071,-0.426771347 12.5956678,0.448581316 13.3538975,0.982933143 Z M5.71410408,10.0844916 C6.05189363,9.81731565 6.50467537,9.5290469 7.0724493,9.31811854 L7.0113597,9.67669674 C6.95745711,9.99308927 6.92152205,10.3165127 6.90714803,10.6434517 C6.73825325,10.7418849 6.587326,10.8473491 6.4615533,10.9492978 C6.25672346,11.114525 6.05548714,11.2973296 5.89737288,11.5082579 C5.71769759,11.761372 5.35475349,11.8281659 5.08883406,11.6559078 C4.82291463,11.4836496 4.75104451,11.1356178 4.9307198,10.8789884 C5.14273665,10.5766577 5.42662361,10.3165127 5.71410408,10.0844916 L5.71410408,10.0844916 Z M5.57395735,5.77452222 C5.68535603,5.48625347 6.02314558,5.33860362 6.32500008,5.44758327 C6.62685457,5.55656292 6.78137532,5.8799864 6.66638313,6.16825514 C6.45436629,6.70963792 5.95486897,7.13501009 5.31522493,7.2369588 C4.67558088,7.3389075 4.05749788,7.0963399 3.67299275,6.64987488 C3.46816291,6.41082275 3.50409797,6.0592755 3.75204988,5.86240903 C4.00000178,5.66554257 4.37013289,5.7006973 4.57496272,5.93623396 C4.85525618,6.2631729 5.4194366,6.17177062 5.57395735,5.77452222 L5.57395735,5.77452222 Z M13.8390208,17.9486036 C11.6829173,17.6040873 9.86819686,15.3260611 8.80451912,13.6597271 C8.08222444,12.527745 7.91692317,11.174288 8.14690755,9.86653226 L9.14949568,4.11170371 C9.21058528,3.7671874 9.35073201,3.44024845 9.64539949,3.23635104 C10.4036292,2.69848374 12.3620899,1.81961561 16.5377437,2.49107086 C20.7133976,3.16252612 22.2621986,4.60386986 22.8012245,5.34563457 C23.0096478,5.63038785 23.0312088,5.98545057 22.9701192,6.32996688 L21.9675311,12.0847954 C21.7375467,13.3925512 21.1230572,14.6229666 20.055786,15.46668 C18.4854239,16.7111573 15.9915308,18.2966354 13.8390208,17.9521191 L13.8390208,17.9486036 Z M11.7368199,15.5053502 C12.5166107,16.2541459 13.299995,16.7252192 14.0294766,16.8412298 C14.7589583,16.9572404 15.6609283,16.7568584 16.6527359,16.2928161 C17.626576,15.8358046 18.564481,15.1889577 19.3119303,14.5983583 C20.1132821,13.9620578 20.6199664,13.0023338 20.8140157,11.8949599 L21.8166039,6.14013136 C21.8309779,6.05224455 21.8309779,5.99248152 21.8273844,5.96435774 L21.8273844,5.96084226 C21.4895948,5.50734631 20.2354613,4.21365241 16.3436944,3.5878983 C12.4519276,2.96214418 10.8240694,3.79531118 10.3533201,4.11873465 L10.3533201,4.12225012 C10.3389461,4.14685843 10.3173851,4.19959052 10.3030111,4.29099281 L9.29682942,10.0493368 C9.10278011,11.1567107 9.25730086,12.2254143 9.79992025,13.0761587 C10.3066046,13.8706555 10.9714032,14.7741319 11.7368199,15.5088657 L11.7368199,15.5053502 Z M12.6244159,8.38651832 C12.419586,8.62557045 12.0494549,8.65720971 11.801503,8.46034324 C11.5535511,8.26347678 11.517616,7.91192953 11.7224459,7.67287739 C12.106951,7.22641238 12.7214405,6.98384477 13.3646781,7.08579348 C14.0079156,7.18774218 14.5038194,7.61311436 14.7158363,8.15449713 C14.8272349,8.44276588 14.6763077,8.76618935 14.3744532,8.875169 C14.0725987,8.98414865 13.7348092,8.83649881 13.6234105,8.54823006 C13.5515404,8.36542548 13.3862391,8.22480658 13.1742223,8.19316733 C12.9622054,8.16152808 12.7573756,8.23886847 12.6280094,8.39003379 L12.6244159,8.38651832 Z M17.9356175,11.3992783 L17.9571786,11.3922473 C18.0685772,11.3570926 18.1763824,11.3219379 18.2841876,11.2832677 C18.4171473,11.2340511 18.5465135,11.181319 18.6758797,11.1250714 C18.8986771,11.0266382 19.161003,11.181319 19.1214745,11.4168557 C19.0963199,11.5645055 19.0603849,11.7086399 19.0208563,11.8492588 C18.9849212,11.9723003 18.9417992,12.0953419 18.8914901,12.2148679 C18.8843031,12.2324453 18.8771161,12.2500226 18.869929,12.2676 C18.1620084,13.9198721 16.3329139,14.9428746 14.4175753,14.6370285 C12.5022367,14.3311824 11.1223304,12.7914054 11.0109317,11.0055454 C11.0109317,10.987968 11.0073382,10.9668752 11.0073382,10.9492978 C11.0001512,10.8227408 11.0037447,10.6926683 11.0109317,10.5625958 C11.0181187,10.4184615 11.0360863,10.2708116 11.0612408,10.1231618 C11.1007694,9.89114057 11.4026239,9.82434659 11.5822992,9.98605833 C11.6829173,10.0774606 11.7907225,10.1688629 11.8985277,10.2567497 C11.9883653,10.3270592 12.078203,10.3973686 12.1716341,10.4641626 L12.1896016,10.4782245 C12.9801729,11.0371846 13.9144845,11.434433 14.9494141,11.5996602 C15.9843438,11.7648874 17.001306,11.6840316 17.939211,11.4027938 L17.9356175,11.3992783 Z M17.1917618,12.714065 C16.404784,12.8335911 15.5818712,12.8335911 14.7553648,12.7000031 C13.9288585,12.5664152 13.1526612,12.3097857 12.4483341,11.9512075 C12.8400262,12.7562507 13.627004,13.3714584 14.6116246,13.5296547 C15.5962452,13.6878509 16.5485243,13.353881 17.1917618,12.714065 Z M17.2348839,9.12828303 C17.030054,9.36733516 16.6599229,9.39897441 16.411971,9.20210795 C16.1640191,9.00524149 16.1280841,8.65369423 16.3329139,8.4146421 C16.717419,7.96817709 17.3319085,7.72560948 17.9751461,7.82755819 C18.6183836,7.92950689 19.1142874,8.35487907 19.3263043,8.89626184 C19.437703,9.18453059 19.2867757,9.50795406 18.9849212,9.61693371 C18.6830667,9.72591336 18.3452772,9.57826351 18.2338785,9.28999476 C18.1620084,9.10719019 17.9967071,8.96657129 17.7810968,8.93493204 C17.5654864,8.90329278 17.3642501,8.98063318 17.2348839,9.1317985 L17.2348839,9.12828303 Z" id="Shape"></path>
        </g>
    </g>
</svg>