<?xml version="1.0" standalone="no"?>
<!DOCTYPE svg PUBLIC "-//W3C//DTD SVG 20010904//EN"
 "http://www.w3.org/TR/2001/REC-SVG-20010904/DTD/svg10.dtd">
<svg version="1.0" xmlns="http://www.w3.org/2000/svg"
 width="640.000000pt" height="640.000000pt" viewBox="0 0 640.000000 640.000000"
 preserveAspectRatio="xMidYMid meet">
<metadata>
Created by potrace 1.14, written by Peter Selinger 2001-2017
</metadata>
<g transform="translate(0.000000,640.000000) scale(0.100000,-0.100000)"
fill="#000000" stroke="none">
<path d="M2338 5755 c-2 -2 -47 -6 -101 -10 -53 -3 -105 -8 -115 -9 -9 -2 -42
-7 -72 -10 -90 -11 -123 -15 -163 -22 -20 -3 -47 -7 -60 -9 -12 -1 -38 -6 -57
-10 -19 -3 -48 -8 -65 -10 -16 -2 -40 -6 -51 -9 -12 -2 -38 -7 -59 -10 -20 -4
-41 -8 -45 -11 -5 -3 -21 -7 -37 -10 -15 -2 -46 -8 -68 -14 -22 -5 -51 -12
-65 -14 -51 -10 -285 -80 -388 -117 -155 -56 -224 -85 -345 -146 -207 -105
-352 -206 -478 -333 -140 -143 -175 -218 -165 -355 3 -44 12 -117 20 -161 8
-44 17 -93 20 -110 3 -16 13 -73 22 -125 8 -52 17 -106 20 -120 2 -14 11 -63
19 -110 15 -91 21 -124 31 -180 4 -19 8 -44 10 -55 1 -11 5 -33 8 -50 3 -16
22 -127 42 -245 19 -118 37 -224 39 -235 2 -11 6 -31 9 -45 3 -14 8 -41 11
-60 2 -19 7 -48 10 -65 3 -16 7 -43 10 -60 14 -85 36 -187 52 -245 32 -116 55
-179 110 -300 24 -51 96 -174 105 -178 5 -2 8 -8 8 -14 0 -13 105 -141 167
-203 57 -57 93 -88 143 -126 19 -15 46 -36 59 -48 13 -11 27 -21 31 -21 3 0
16 -9 28 -20 12 -11 36 -30 54 -43 19 -12 40 -28 48 -35 16 -14 230 -155 251
-166 28 -14 57 -32 73 -45 9 -7 16 -10 16 -7 0 4 14 -2 30 -14 38 -27 301
-153 355 -170 22 -7 45 -16 50 -20 10 -6 138 -45 183 -55 12 -3 32 -7 45 -11
64 -15 191 -30 264 -29 46 0 83 -4 83 -8 0 -4 9 -3 20 3 20 11 20 11 0 33 -12
12 -64 84 -116 159 -53 76 -99 138 -102 138 -7 0 -138 29 -157 34 -5 2 -17 5
-25 8 -8 3 -44 16 -80 28 -145 50 -310 133 -528 265 -29 18 -167 110 -172 115
-3 3 -59 45 -125 94 -246 182 -379 355 -469 606 -25 69 -58 195 -69 265 -4 25
-16 93 -41 240 -2 11 -7 36 -10 55 -3 19 -8 49 -11 65 -3 17 -8 46 -10 65 -3
19 -7 46 -10 60 -9 40 -17 83 -20 105 -1 11 -5 36 -9 55 -8 48 -13 76 -36 215
-11 66 -22 131 -25 145 -2 14 -8 52 -14 85 -6 33 -13 74 -16 90 -3 17 -8 46
-11 65 -3 19 -7 46 -10 60 -2 14 -7 41 -10 60 -2 19 -7 46 -10 60 -2 14 -7 37
-9 53 -3 15 -7 39 -10 55 -5 25 -17 111 -17 122 -1 36 40 84 147 176 121 104
337 224 551 307 84 33 326 111 377 121 12 3 91 21 175 40 84 19 176 38 205 41
28 4 55 9 58 11 4 2 28 6 55 9 27 3 60 7 74 10 14 3 43 7 65 9 36 4 75 9 175
21 193 25 653 18 760 -10 8 -2 37 -7 65 -11 27 -3 59 -10 71 -14 22 -9 109 -6
154 4 33 8 97 17 145 21 22 2 56 6 75 9 29 5 186 14 264 16 19 0 19 0 0 19
-10 10 -22 17 -26 14 -5 -2 -8 0 -8 4 0 8 -133 93 -145 93 -3 0 -33 14 -67 30
-34 17 -68 30 -75 30 -7 0 -21 4 -31 10 -16 9 -143 47 -186 56 -38 8 -71 14
-101 19 -16 3 -41 8 -55 10 -29 6 -96 15 -160 21 -51 6 -547 13 -552 9z"/>
<path d="M3808 5125 c-2 -3 -67 -7 -144 -10 -76 -3 -149 -7 -161 -9 -12 -3
-48 -7 -80 -11 -32 -3 -65 -8 -73 -10 -8 -3 -31 -7 -50 -9 -40 -6 -74 -13 -98
-20 -9 -3 -28 -7 -42 -10 -38 -7 -161 -46 -197 -62 -17 -8 -34 -14 -38 -14
-18 0 -194 -94 -233 -125 -36 -28 -72 -65 -72 -75 0 -5 -4 -10 -9 -10 -20 0
-66 -151 -85 -285 -4 -23 -8 -52 -11 -65 -3 -13 -7 -40 -10 -60 -3 -20 -7 -45
-9 -57 -3 -11 -7 -36 -10 -54 -3 -19 -8 -45 -11 -59 -2 -13 -7 -40 -10 -60 -3
-20 -7 -45 -9 -55 -2 -11 -7 -40 -11 -65 -11 -72 -14 -93 -20 -120 -3 -14 -8
-41 -11 -60 -7 -52 -9 -66 -53 -315 -22 -126 -42 -246 -45 -265 -3 -19 -8 -46
-11 -60 -3 -14 -8 -41 -11 -60 -3 -19 -7 -44 -9 -55 -2 -11 -6 -38 -9 -60 -3
-22 -8 -51 -11 -65 -8 -35 -15 -95 -19 -162 -3 -32 -7 -62 -11 -68 -3 -5 -3
-10 2 -10 4 0 8 -48 9 -108 1 -170 19 -277 77 -447 50 -148 144 -311 324 -565
137 -193 363 -444 507 -565 27 -22 58 -48 70 -58 40 -35 174 -127 184 -127 6
0 12 -4 14 -8 3 -10 188 -104 188 -96 0 2 10 -2 23 -10 25 -16 102 -39 202
-60 101 -21 332 -15 455 12 300 65 581 194 930 426 74 49 147 99 161 110 14
12 38 30 54 41 15 11 44 34 64 50 20 17 54 44 76 60 105 77 256 252 328 380
122 216 182 402 232 715 2 14 6 34 9 45 2 11 9 56 16 100 7 44 14 89 16 100 3
11 7 36 10 55 3 19 8 49 11 65 3 17 7 39 8 50 2 11 8 49 15 85 7 36 14 79 17
95 2 17 10 66 18 110 8 44 17 96 20 115 3 19 14 85 25 145 11 61 22 128 25
150 3 22 9 54 12 70 4 17 7 37 9 45 1 8 5 33 8 55 4 22 8 49 10 60 7 43 19
111 23 130 3 11 6 58 8 105 4 97 -10 149 -58 220 -37 53 -175 194 -232 235
-22 17 -42 32 -45 35 -28 29 -189 125 -311 186 -108 55 -349 154 -372 154 -8
0 -17 3 -21 7 -3 4 -12 8 -19 9 -7 1 -32 9 -57 17 -117 39 -328 93 -440 113
-14 2 -45 9 -70 14 -61 13 -100 21 -130 25 -14 1 -54 8 -90 13 -86 14 -149 24
-180 27 -191 21 -213 23 -394 30 -82 3 -152 8 -156 10 -4 3 -9 2 -12 0z m252
-329 c58 -3 121 -8 140 -11 19 -3 62 -7 95 -10 33 -3 67 -7 75 -10 8 -2 40 -7
70 -10 70 -8 305 -51 390 -71 36 -9 74 -17 85 -19 163 -27 678 -214 746 -272
8 -7 19 -13 23 -13 13 0 178 -110 231 -154 67 -56 145 -137 154 -160 4 -11 2
-51 -5 -90 -20 -115 -22 -129 -29 -171 -3 -22 -13 -76 -20 -120 -8 -44 -17
-95 -20 -112 -3 -18 -7 -48 -10 -65 -3 -18 -8 -46 -11 -63 -5 -33 -50 -290
-60 -345 -3 -19 -8 -48 -10 -65 -2 -16 -6 -41 -8 -55 -3 -13 -8 -40 -11 -60
-3 -20 -7 -47 -10 -60 -10 -53 -25 -137 -30 -175 -4 -22 -8 -47 -10 -55 -2 -8
-7 -35 -10 -60 -59 -427 -172 -691 -381 -895 -45 -44 -88 -85 -96 -90 -7 -6
-51 -39 -98 -73 -47 -35 -92 -69 -100 -75 -61 -47 -250 -169 -345 -222 -128
-72 -340 -170 -385 -179 -8 -2 -22 -5 -30 -9 -40 -14 -126 -39 -149 -42 -14
-2 -44 -8 -67 -13 -22 -5 -96 -8 -165 -7 -138 2 -217 22 -354 92 -58 29 -177
104 -195 123 -3 3 -33 28 -68 55 -108 87 -339 334 -427 459 -11 16 -30 40 -41
55 -53 64 -216 318 -248 386 -35 72 -77 202 -90 275 -25 139 -25 351 -1 483 3
15 7 39 10 55 3 15 8 43 11 62 3 19 10 60 15 90 6 30 12 66 14 80 6 42 15 93
25 145 5 28 12 66 15 85 3 19 10 62 16 95 5 33 12 74 14 90 3 17 9 53 15 80 5
28 12 68 15 90 3 22 10 63 15 90 13 66 19 103 26 145 2 19 7 46 9 60 3 14 7
41 10 60 5 29 24 140 51 290 2 14 9 54 14 89 6 35 15 72 20 81 16 29 224 128
304 144 11 3 57 14 101 25 44 11 103 22 130 25 28 4 61 8 73 11 13 2 65 7 115
10 50 4 92 7 93 8 4 4 256 -2 364 -7z"/>
<path d="M3555 3744 c-152 -35 -288 -129 -320 -220 -14 -40 -9 -98 9 -122 76
-98 176 -112 261 -35 112 101 220 82 294 -52 58 -106 203 -119 273 -25 60 82
28 200 -87 315 -96 96 -228 149 -362 144 -32 -1 -62 -3 -68 -5z"/>
<path d="M4825 3530 c-123 -26 -242 -103 -294 -190 -64 -108 26 -245 154 -233
39 4 74 23 143 79 24 20 46 27 84 30 78 4 127 -28 168 -109 49 -98 175 -122
256 -51 30 27 44 58 49 106 9 92 -105 252 -225 316 -49 25 -70 33 -130 49 -34
9 -168 11 -205 3z"/>
<path d="M3123 2935 c-45 -19 -53 -51 -57 -218 -2 -64 1 -141 6 -170 14 -87
40 -189 54 -216 8 -14 14 -31 14 -38 0 -23 93 -187 145 -258 80 -108 227 -242
315 -287 14 -7 27 -15 30 -18 9 -9 144 -69 200 -88 49 -17 124 -36 200 -49 51
-9 282 -10 327 -1 27 5 64 11 83 14 55 9 203 60 272 95 214 108 393 282 496
484 45 88 71 147 77 173 3 9 13 51 23 93 16 66 17 79 4 105 -21 46 -59 56
-124 32 -140 -51 -278 -97 -304 -101 -16 -3 -50 -10 -77 -16 -186 -43 -474
-45 -677 -5 -41 8 -86 17 -100 20 -128 25 -419 146 -523 218 -21 14 -40 26
-44 26 -3 0 -22 14 -43 30 -21 17 -41 30 -44 30 -3 0 -14 8 -24 18 -81 76
-178 147 -196 142 0 -1 -15 -7 -33 -15z m520 -658 c23 -9 69 -25 102 -37 33
-12 71 -24 85 -27 13 -2 30 -9 37 -15 7 -6 13 -8 13 -5 0 3 15 1 33 -4 32 -10
53 -15 102 -23 13 -3 28 -7 32 -9 5 -3 37 -8 73 -12 36 -4 67 -8 70 -10 3 -2
48 -6 100 -10 140 -11 305 -7 438 10 23 3 42 2 42 -3 0 -15 -135 -111 -207
-146 -66 -33 -143 -59 -213 -73 -14 -2 -70 -6 -125 -9 -107 -4 -248 18 -321
51 -22 10 -53 24 -71 31 -18 8 -35 19 -38 24 -4 6 -10 8 -14 5 -5 -2 -16 4
-26 15 -10 11 -22 20 -26 20 -18 0 -179 154 -179 171 0 4 -7 14 -15 22 -13 14
-65 101 -65 110 0 2 29 -10 65 -28 36 -18 84 -40 108 -48z"/>
<path d="M1635 4204 c-44 -23 -59 -39 -86 -91 -56 -109 -183 -129 -274 -44
-54 51 -93 63 -182 52 -22 -2 -91 -71 -100 -99 -26 -77 12 -156 108 -227 55
-41 151 -85 192 -88 9 -1 17 -4 17 -7 0 -7 135 -4 183 4 103 17 212 83 283
170 102 125 114 227 38 304 -40 40 -128 53 -179 26z"/>
<path d="M1905 3082 c-167 -75 -309 -173 -437 -304 -114 -115 -143 -187 -108
-265 27 -61 88 -97 158 -95 49 2 68 16 182 131 58 59 131 124 163 144 31 21
57 41 58 45 1 4 2 25 4 47 4 68 15 157 29 240 8 44 13 81 12 82 -1 1 -28 -10
-61 -25z"/>
</g>
</svg>
